<svg xmlns="http://www.w3.org/2000/svg" width="891" height="870" viewBox="0 0 891 870" fill="none"><g opacity="0.1"><path d="M14.2427 223.841C-47.6049 -0.275421 181.502 -23.0877 346.841 44.5837C443.308 79.3862 506.66 -28.847 626.165 14.3475C745.67 57.542 602.408 193.605 785.265 263.436C968.122 333.267 878.853 645.707 719.033 649.306C559.214 652.906 603.128 705.459 443.308 825.684C283.489 945.909 14.243 778.89 81.1945 602.512C148.146 426.135 81.1937 466.45 14.2427 223.841Z" stroke="white" stroke-width="7"></path><path d="M358.212 398.258C351.076 376.913 384.501 342.476 411.377 357.173C435.988 370.63 461.051 361.554 477.609 367.554C521.199 383.349 505.165 391.709 524.651 410.468C548.363 433.295 559.678 493.069 505.165 493.069C460.331 493.069 473.746 514.845 440.173 524.493C406.601 534.142 368.527 517.718 368.527 474.478C368.527 458.24 370.098 433.81 358.212 398.258Z" stroke="white" stroke-width="7"></path><path d="M45.5075 238.608C-11.3663 32.9256 199.951 9.05655 352.702 71.912C442.638 104.774 502.509 5.55515 612.655 45.3683C725.258 86.0719 593.563 210.525 761.568 275.714C929.957 341.272 849.832 630.742 699.585 634.014C550.219 637.287 591.361 687.042 443.018 797.214C294.676 907.387 46.4456 754.058 107.311 589.784C168.175 427.965 107.453 462.394 45.5075 238.608Z" stroke="white" stroke-width="2"></path><path d="M76.7745 253.376C24.8744 66.1272 218.402 41.2015 358.566 99.241C441.969 130.163 498.359 39.958 599.147 76.3898C704.849 114.603 584.72 227.447 737.873 287.992C891.794 349.277 820.813 615.778 680.14 618.723C541.227 621.668 579.596 668.625 442.73 768.745C305.865 868.865 78.6503 729.227 133.429 577.057C188.207 429.795 133.714 458.338 76.7745 253.376Z" stroke="white" stroke-width="2"></path><path d="M108.04 268.145C61.1137 99.3297 236.852 73.3472 364.429 126.571C441.299 155.552 494.209 74.3617 585.637 107.412C684.438 143.134 575.875 244.369 714.176 300.271C853.63 357.283 791.793 600.814 660.693 603.432C532.233 606.05 567.829 650.209 442.441 740.277C317.052 830.344 110.853 704.397 159.545 564.33C208.237 431.627 159.973 454.284 108.04 268.145Z" stroke="white" stroke-width="2"></path><path d="M139.305 282.915C97.3529 132.533 255.302 105.494 370.291 153.902C440.629 180.943 490.058 108.766 572.127 138.435C664.027 171.666 567.03 261.292 690.479 312.551C815.465 365.29 762.772 585.852 641.246 588.142C523.239 590.433 556.063 631.794 442.151 711.81C328.24 791.825 143.057 679.568 185.662 551.604C228.267 433.459 186.232 450.23 139.305 282.915Z" stroke="white" stroke-width="2"></path><path d="M170.573 298.433C133.594 166.485 273.755 138.389 376.156 181.981C439.962 207.081 485.909 143.919 558.62 170.207C643.618 200.947 558.188 278.964 666.785 325.58C777.303 374.046 733.754 571.638 621.801 573.601C514.247 575.564 544.298 614.128 441.864 684.091C339.429 754.053 175.262 655.487 211.781 539.626C248.3 436.04 212.494 446.925 170.573 298.433Z" stroke="white" stroke-width="2"></path><path d="M201.839 314.836C169.835 201.322 292.205 172.169 382.019 210.945C439.293 234.105 481.759 179.958 545.111 202.864C623.208 231.113 549.344 297.52 643.089 339.494C739.14 383.686 704.734 558.309 602.355 559.945C505.254 561.581 532.533 597.346 441.575 657.257C350.618 717.167 207.466 632.291 237.899 528.534C268.331 439.505 238.755 444.505 201.839 314.836Z" stroke="white" stroke-width="2"></path><path d="M233.107 331.289C206.076 236.208 310.657 205.999 387.884 239.959C438.625 261.178 477.61 216.045 531.603 235.57C602.799 261.328 540.501 316.126 619.394 353.457C700.977 393.376 675.716 545.029 582.91 546.338C496.262 547.647 520.768 580.614 441.288 630.472C361.807 680.33 239.671 609.145 264.017 517.491C288.363 443.02 265.016 442.134 233.107 331.289Z" stroke="white" stroke-width="2"></path><path d="M264.375 347.812C242.318 271.165 329.11 239.899 393.749 269.043C437.958 288.322 473.462 252.203 518.097 268.347C582.391 291.614 531.659 334.803 595.7 367.491C662.816 403.137 646.698 531.82 563.465 532.802C487.271 533.783 509.004 563.953 441.001 603.759C372.998 643.564 271.877 586.069 290.137 506.519C308.396 446.606 291.278 439.834 264.375 347.812Z" stroke="white" stroke-width="2"></path><path d="M295.648 364.44C278.564 306.227 347.567 273.904 399.618 298.232C437.295 315.571 469.319 288.466 504.594 301.228C561.987 322.005 522.821 353.584 572.011 381.629C624.658 413.002 617.685 518.715 544.025 519.37C478.285 520.024 497.245 547.396 440.719 577.149C384.192 606.902 304.087 563.098 316.26 495.651C328.433 450.297 317.545 437.638 295.648 364.44Z" stroke="white" stroke-width="2"></path><path d="M326.925 381.226C314.815 341.446 366.029 308.067 405.493 327.579C436.636 342.977 465.179 324.887 491.096 334.268C541.588 352.554 513.988 372.523 548.326 395.925C586.506 423.025 588.676 505.769 524.59 506.096C469.303 506.424 485.49 530.997 440.441 550.698C395.391 570.399 336.302 540.285 342.389 484.941C348.475 454.145 343.816 435.601 326.925 381.226Z" stroke="white" stroke-width="2"></path></g></svg>